<svg width="140" height="110" viewBox="0 0 140 110" fill="none" xmlns="http://www.w3.org/2000/svg">
<path d="M2.10149 94.716V80.0767C2.10149 77.389 3.53111 75.9594 6.21879 75.9594H9.99299C12.6521 75.9594 14.1103 77.389 14.1103 80.0767V83.0503C14.1103 83.3362 13.9387 83.5077 13.6528 83.5077H10.7936C10.4791 83.5077 10.3361 83.3362 10.3361 83.0503V80.8772C10.3361 80.1338 9.9358 79.7335 9.1924 79.7335H7.13375C6.36176 79.7335 5.99006 80.1338 5.99006 80.8772V93.9154C5.99006 94.6874 6.39035 95.0591 7.13375 95.0591H9.1924C9.9358 95.0591 10.3361 94.6874 10.3361 93.9154V90.084H8.84929C8.53478 90.084 8.39181 89.9124 8.39181 89.6265V86.7673C8.39181 86.4528 8.53478 86.3098 8.84929 86.3098H13.6528C13.9387 86.3098 14.1103 86.4528 14.1103 86.7673V94.716C14.1103 97.4036 12.6521 98.8333 9.99299 98.8333H6.21879C3.53111 98.8333 2.10149 97.4036 2.10149 94.716ZM28.7076 80.0767V87.0532C28.7076 88.9689 27.9928 90.2269 26.6203 90.8274L28.5932 98.3186C28.679 98.6617 28.5074 98.8333 28.1929 98.8333H25.2193C24.9334 98.8333 24.7904 98.6903 24.7332 98.433L22.8176 91.1705H20.8447V98.3758C20.8447 98.6617 20.6731 98.8333 20.3872 98.8333H17.4136C17.1277 98.8333 16.9561 98.6617 16.9561 98.3758V76.4168C16.9561 76.1309 17.1277 75.9594 17.4136 75.9594H24.5903C27.278 75.9594 28.7076 77.389 28.7076 80.0767ZM20.8447 87.3963H23.6753C24.4187 87.3963 24.819 86.996 24.819 86.2526V80.8772C24.819 80.1338 24.4187 79.7335 23.6753 79.7335H20.8447V87.3963ZM42.9678 76.4168V79.2761C42.9678 79.562 42.8534 79.7621 42.5103 79.7621H35.3622V85.4806H40.8234C41.1093 85.4806 41.2809 85.6522 41.2809 85.9667V88.7973C41.2809 89.1118 41.1093 89.2834 40.8234 89.2834H35.3622V95.0591H42.5103C42.8534 95.0591 42.9678 95.202 42.9678 95.5165V98.3758C42.9678 98.6617 42.8534 98.8333 42.5103 98.8333H31.9883C31.731 98.8333 31.5594 98.6617 31.5594 98.3758V76.4168C31.5594 76.1309 31.731 75.9594 31.9883 75.9594H42.5103C42.8534 75.9594 42.9678 76.1309 42.9678 76.4168ZM57.2361 76.4168V79.2761C57.2361 79.562 57.1217 79.7621 56.7786 79.7621H49.6305V85.4806H55.0916C55.3776 85.4806 55.5491 85.6522 55.5491 85.9667V88.7973C55.5491 89.1118 55.3776 89.2834 55.0916 89.2834H49.6305V95.0591H56.7786C57.1217 95.0591 57.2361 95.202 57.2361 95.5165V98.3758C57.2361 98.6617 57.1217 98.8333 56.7786 98.8333H46.2566C45.9993 98.8333 45.8277 98.6617 45.8277 98.3758V76.4168C45.8277 76.1309 45.9993 75.9594 46.2566 75.9594H56.7786C57.1217 75.9594 57.2361 76.1309 57.2361 76.4168ZM68.8738 75.9594H71.8474C72.1334 75.9594 72.3049 76.1309 72.3049 76.4168V98.3758C72.3049 98.6617 72.1334 98.8333 71.8474 98.8333H69.0168C68.7595 98.8333 68.5879 98.7189 68.5021 98.4616L64.1275 86.2526H63.9845V98.3758C63.9845 98.6617 63.8416 98.8333 63.5271 98.8333H60.5534C60.2675 98.8333 60.096 98.6617 60.096 98.3758V76.4168C60.096 76.1309 60.2675 75.9594 60.5534 75.9594H63.3841C63.6414 75.9594 63.813 76.0737 63.8988 76.3311L68.2448 88.4828H68.4163V76.4168C68.4163 76.1309 68.5593 75.9594 68.8738 75.9594ZM96.1036 98.8333H93.0728C92.8155 98.8333 92.6725 98.6903 92.6153 98.433L91.8147 94.2585H86.7253L85.9533 98.433C85.8961 98.6903 85.7532 98.8333 85.4958 98.8333H82.4364C82.1219 98.8333 81.979 98.6617 82.0647 98.3472L86.8111 76.3597C86.8683 76.0737 87.0398 75.9594 87.2971 75.9594H91.2715C91.5288 75.9594 91.7004 76.0737 91.7575 76.3597L96.5039 98.3472C96.5611 98.6617 96.4467 98.8333 96.1036 98.8333ZM91.0999 90.9418L89.27 80.963L87.4401 90.9418H91.0999ZM106.752 75.9594H109.382C109.697 75.9594 109.954 76.2167 109.954 76.5312V94.716C109.954 97.4036 108.524 98.8333 105.837 98.8333H102.634C99.9466 98.8333 98.517 97.4036 98.517 94.716V76.5312C98.517 76.2167 98.7743 75.9594 99.0888 75.9594H101.834C102.148 75.9594 102.406 76.2167 102.406 76.5312V93.9154C102.406 94.6874 102.806 95.0591 103.549 95.0591H105.036C105.779 95.0591 106.18 94.6874 106.18 93.9154V76.5312C106.18 76.2167 106.437 75.9594 106.752 75.9594ZM112.699 75.9594H123.221C123.535 75.9594 123.678 76.1309 123.678 76.4168V79.2761C123.678 79.562 123.535 79.7335 123.221 79.7335H119.904V98.3758C119.904 98.6903 119.761 98.8333 119.447 98.8333H116.473C116.187 98.8333 116.015 98.6903 116.015 98.3758V79.7335H112.699C112.413 79.7335 112.241 79.562 112.241 79.2761V76.4168C112.241 76.1309 112.413 75.9594 112.699 75.9594ZM125.406 94.716V80.0767C125.406 77.389 126.836 75.9594 129.523 75.9594H132.726C135.413 75.9594 136.843 77.389 136.843 80.0767V94.716C136.843 97.4036 135.413 98.8333 132.726 98.8333H129.523C126.836 98.8333 125.406 97.4036 125.406 94.716ZM130.353 95.1448H132.011C132.754 95.1448 133.155 94.7731 133.155 94.0011V80.7915C133.155 80.0481 132.754 79.6478 132.011 79.6478H130.353C129.609 79.6478 129.209 80.0481 129.209 80.7915V94.0011C129.209 94.7731 129.609 95.1448 130.353 95.1448Z" fill="white"/>
<g clip-path="url(#clip0_346_43)">
<path d="M124.599 29.7596L124.611 59.2867H121.95L102.31 20.8255L93.5839 38.0039H75.2588L94.5033 0.0703125H109.427L124.599 29.7596Z" fill="white"/>
<path d="M72.7403 42.759H107.955L111.934 50.4887L107.916 59.2855H64.25L72.7403 42.759Z" fill="white"/>
<path d="M76.9558 25.1423L59.3815 59.4543H12.5928L43.2313 0H90.0389L79.5203 20.3742H50.9478L39.3851 42.658H48.9142L51.3048 38.0566H47.2094L53.9112 25.1423H76.9558Z" fill="white"/>
</g>
<defs>
<clipPath id="clip0_346_43">
<rect width="112.017" height="59.4531" fill="white" transform="translate(12.5928)"/>
</clipPath>
</defs>
</svg>
