<svg width="129" height="87" viewBox="0 0 129 87" fill="none" xmlns="http://www.w3.org/2000/svg">
<path d="M1.33008 78.8832V65.2632C1.33008 62.7627 2.66016 61.4326 5.16071 61.4326H8.67212C11.1461 61.4326 12.5027 62.7627 12.5027 65.2632V68.0298C12.5027 68.2958 12.3431 68.4554 12.0771 68.4554H9.41696C9.12435 68.4554 8.99134 68.2958 8.99134 68.0298V66.0081C8.99134 65.3164 8.61892 64.944 7.92727 64.944H6.01196C5.29372 64.944 4.9479 65.3164 4.9479 66.0081V78.1384C4.9479 78.8566 5.32032 79.2025 6.01196 79.2025H7.92727C8.61892 79.2025 8.99134 78.8566 8.99134 78.1384V74.5738H7.60806C7.31544 74.5738 7.18243 74.4142 7.18243 74.1482V71.488C7.18243 71.1954 7.31544 71.0624 7.60806 71.0624H12.0771C12.3431 71.0624 12.5027 71.1954 12.5027 71.488V78.8832C12.5027 81.3838 11.1461 82.7139 8.67212 82.7139H5.16071C2.66016 82.7139 1.33008 81.3838 1.33008 78.8832ZM26.0837 65.2632V71.754C26.0837 73.5363 25.4187 74.7068 24.1418 75.2654L25.9773 82.235C26.0571 82.5543 25.8975 82.7139 25.6049 82.7139H22.8383C22.5723 82.7139 22.4393 82.5809 22.3861 82.3414L20.6038 75.5846H18.7683V82.2882C18.7683 82.5543 18.6086 82.7139 18.3426 82.7139H15.5761C15.31 82.7139 15.1504 82.5543 15.1504 82.2882V61.8582C15.1504 61.5922 15.31 61.4326 15.5761 61.4326H22.2531C24.7536 61.4326 26.0837 62.7627 26.0837 65.2632ZM18.7683 72.0732H21.4018C22.0935 72.0732 22.4659 71.7008 22.4659 71.0092V66.0081C22.4659 65.3164 22.0935 64.944 21.4018 64.944H18.7683V72.0732ZM39.351 61.8582V64.5184C39.351 64.7844 39.2446 64.9706 38.9254 64.9706H32.275V70.2909H37.3559C37.6219 70.2909 37.7815 70.4505 37.7815 70.7432V73.3767C37.7815 73.6693 37.6219 73.8289 37.3559 73.8289H32.275V79.2025H38.9254C39.2446 79.2025 39.351 79.3355 39.351 79.6281V82.2882C39.351 82.5543 39.2446 82.7139 38.9254 82.7139H29.136C28.8966 82.7139 28.737 82.5543 28.737 82.2882V61.8582C28.737 61.5922 28.8966 61.4326 29.136 61.4326H38.9254C39.2446 61.4326 39.351 61.5922 39.351 61.8582ZM52.6258 61.8582V64.5184C52.6258 64.7844 52.5194 64.9706 52.2002 64.9706H45.5498V70.2909H50.6307C50.8967 70.2909 51.0564 70.4505 51.0564 70.7432V73.3767C51.0564 73.6693 50.8967 73.8289 50.6307 73.8289H45.5498V79.2025H52.2002C52.5194 79.2025 52.6258 79.3355 52.6258 79.6281V82.2882C52.6258 82.5543 52.5194 82.7139 52.2002 82.7139H42.4108C42.1714 82.7139 42.0118 82.5543 42.0118 82.2882V61.8582C42.0118 61.5922 42.1714 61.4326 42.4108 61.4326H52.2002C52.5194 61.4326 52.6258 61.5922 52.6258 61.8582ZM63.4533 61.4326H66.2199C66.4859 61.4326 66.6455 61.5922 66.6455 61.8582V82.2882C66.6455 82.5543 66.4859 82.7139 66.2199 82.7139H63.5863C63.3469 82.7139 63.1873 82.6075 63.1075 82.368L59.0375 71.0092H58.9044V82.2882C58.9044 82.5543 58.7714 82.7139 58.4788 82.7139H55.7123C55.4462 82.7139 55.2866 82.5543 55.2866 82.2882V61.8582C55.2866 61.5922 55.4462 61.4326 55.7123 61.4326H58.3458C58.5852 61.4326 58.7448 61.539 58.8246 61.7784L62.8681 73.0841H63.0277V61.8582C63.0277 61.5922 63.1607 61.4326 63.4533 61.4326ZM88.7872 82.7139H85.9674C85.728 82.7139 85.595 82.5809 85.5418 82.3414L84.7969 78.4576H80.0619L79.3436 82.3414C79.2904 82.5809 79.1574 82.7139 78.918 82.7139H76.0716C75.779 82.7139 75.646 82.5543 75.7258 82.2616L80.1417 61.805C80.1949 61.539 80.3545 61.4326 80.5939 61.4326H84.2915C84.5309 61.4326 84.6905 61.539 84.7437 61.805L89.1596 82.2616C89.2128 82.5543 89.1064 82.7139 88.7872 82.7139ZM84.1319 75.3718L82.4294 66.0879L80.7269 75.3718H84.1319ZM98.6938 61.4326H101.141C101.434 61.4326 101.673 61.672 101.673 61.9646V78.8832C101.673 81.3838 100.343 82.7139 97.8425 82.7139H94.8631C92.3626 82.7139 91.0325 81.3838 91.0325 78.8832V61.9646C91.0325 61.672 91.2719 61.4326 91.5645 61.4326H94.1183C94.4109 61.4326 94.6503 61.672 94.6503 61.9646V78.1384C94.6503 78.8566 95.0228 79.2025 95.7144 79.2025H97.0977C97.7893 79.2025 98.1617 78.8566 98.1617 78.1384V61.9646C98.1617 61.672 98.4012 61.4326 98.6938 61.4326ZM104.227 61.4326H114.016C114.309 61.4326 114.442 61.5922 114.442 61.8582V64.5184C114.442 64.7844 114.309 64.944 114.016 64.944H110.931V82.2882C110.931 82.5809 110.798 82.7139 110.505 82.7139H107.738C107.472 82.7139 107.313 82.5809 107.313 82.2882V64.944H104.227C103.961 64.944 103.801 64.7844 103.801 64.5184V61.8582C103.801 61.5922 103.961 61.4326 104.227 61.4326ZM116.049 78.8832V65.2632C116.049 62.7627 117.38 61.4326 119.88 61.4326H122.859C125.36 61.4326 126.69 62.7627 126.69 65.2632V78.8832C126.69 81.3838 125.36 82.7139 122.859 82.7139H119.88C117.38 82.7139 116.049 81.3838 116.049 78.8832ZM120.652 79.2823H122.194C122.886 79.2823 123.258 78.9364 123.258 78.2182V65.9283C123.258 65.2366 122.886 64.8642 122.194 64.8642H120.652C119.96 64.8642 119.587 65.2366 119.587 65.9283V78.2182C119.587 78.9364 119.96 79.2823 120.652 79.2823Z" fill="#64FF73"/>
<g clip-path="url(#clip0_303_213)">
<path d="M115.298 23.4074L115.309 46.6321H112.833L94.5601 16.3802L86.4418 29.892H69.3926L87.2972 0.0551758H101.182L115.298 23.4074Z" fill="#64FF73"/>
<path d="M67.0534 33.6318H99.8162L103.518 39.7116L99.7801 46.6308H59.1543L67.0534 33.6318Z" fill="#64FF73"/>
<path d="M70.9735 19.7758L54.6228 46.764H11.0918L39.5971 0H83.1457L73.3594 16.0254H46.7763L36.0187 33.5528H44.8843L47.1085 29.9336H43.2982L49.5334 19.7758H70.9735Z" fill="#64FF73"/>
</g>
<defs>
<clipPath id="clip0_303_213">
<rect width="104.217" height="46.7631" fill="white" transform="translate(11.0918)"/>
</clipPath>
</defs>
</svg>
