<svg width="62" height="45" viewBox="0 0 62 45" fill="none" xmlns="http://www.w3.org/2000/svg">
<g clip-path="url(#clip0_744_11)">
<path d="M54.5984 11.0844L54.6035 22.0823H53.4312L44.7783 7.75672L40.9339 14.1551H32.8604L41.3389 0.026123H47.914L54.5984 11.0844Z" fill="white"/>
<path d="M31.7523 15.9263H47.2668L49.0199 18.8053L47.2498 22.0818H28.0117L31.7523 15.9263Z" fill="white"/>
<path d="M33.6085 9.36468L25.8657 22.1447H5.25195L18.7504 0H39.3725L34.7383 7.58869H22.1501L17.0559 15.8887H21.2541L22.3074 14.1748H20.5031L23.4557 9.36468H33.6085Z" fill="white"/>
</g>
<path d="M0.629848 41.186V34.7364C0.629848 33.5523 1.2597 32.9224 2.44381 32.9224H4.10661C5.27813 32.9224 5.92058 33.5523 5.92058 34.7364V36.0465C5.92058 36.1724 5.84499 36.248 5.71902 36.248H4.45933C4.32076 36.248 4.25778 36.1724 4.25778 36.0465V35.0891C4.25778 34.7616 4.08142 34.5852 3.7539 34.5852H2.84692C2.5068 34.5852 2.34304 34.7616 2.34304 35.0891V40.8333C2.34304 41.1734 2.51939 41.3372 2.84692 41.3372H3.7539C4.08142 41.3372 4.25778 41.1734 4.25778 40.8333V39.1453H3.60273C3.46417 39.1453 3.40118 39.0697 3.40118 38.9438V37.6841C3.40118 37.5455 3.46417 37.4825 3.60273 37.4825H5.71902C5.84499 37.4825 5.92058 37.5455 5.92058 37.6841V41.186C5.92058 42.3702 5.27813 43 4.10661 43H2.44381C1.2597 43 0.629848 42.3702 0.629848 41.186ZM12.3517 34.7364V37.81C12.3517 38.654 12.0368 39.2083 11.4321 39.4728L12.3013 42.7733C12.3391 42.9244 12.2635 43 12.125 43H10.8149C10.6889 43 10.6259 42.937 10.6007 42.8236L9.75675 39.624H8.88756V42.7984C8.88756 42.9244 8.81197 43 8.686 43H7.37592C7.24995 43 7.17437 42.9244 7.17437 42.7984V33.124C7.17437 32.998 7.24995 32.9224 7.37592 32.9224H10.5378C11.7219 32.9224 12.3517 33.5523 12.3517 34.7364ZM8.88756 37.9612H10.1347C10.4622 37.9612 10.6385 37.7849 10.6385 37.4573V35.0891C10.6385 34.7616 10.4622 34.5852 10.1347 34.5852H8.88756V37.9612ZM18.6344 33.124V34.3837C18.6344 34.5096 18.584 34.5978 18.4328 34.5978H15.2836V37.1172H17.6896C17.8156 37.1172 17.8911 37.1928 17.8911 37.3314V38.5785C17.8911 38.717 17.8156 38.7926 17.6896 38.7926H15.2836V41.3372H18.4328C18.584 41.3372 18.6344 41.4002 18.6344 41.5388V42.7984C18.6344 42.9244 18.584 43 18.4328 43H13.7971C13.6838 43 13.6082 42.9244 13.6082 42.7984V33.124C13.6082 32.998 13.6838 32.9224 13.7971 32.9224H18.4328C18.584 32.9224 18.6344 32.998 18.6344 33.124ZM24.9205 33.124V34.3837C24.9205 34.5096 24.8702 34.5978 24.719 34.5978H21.5698V37.1172H23.9758C24.1017 37.1172 24.1773 37.1928 24.1773 37.3314V38.5785C24.1773 38.717 24.1017 38.7926 23.9758 38.7926H21.5698V41.3372H24.719C24.8702 41.3372 24.9205 41.4002 24.9205 41.5388V42.7984C24.9205 42.9244 24.8702 43 24.719 43H20.0833C19.9699 43 19.8944 42.9244 19.8944 42.7984V33.124C19.8944 32.998 19.9699 32.9224 20.0833 32.9224H24.719C24.8702 32.9224 24.9205 32.998 24.9205 33.124ZM30.0478 32.9224H31.3579C31.4839 32.9224 31.5594 32.998 31.5594 33.124V42.7984C31.5594 42.9244 31.4839 43 31.3579 43H30.1108C29.9974 43 29.9218 42.9496 29.884 42.8362L27.9567 37.4573H27.8937V42.7984C27.8937 42.9244 27.8307 43 27.6922 43H26.3821C26.2561 43 26.1805 42.9244 26.1805 42.7984V33.124C26.1805 32.998 26.2561 32.9224 26.3821 32.9224H27.6292C27.7426 32.9224 27.8181 32.9728 27.8559 33.0862L29.7707 38.4399H29.8463V33.124C29.8463 32.998 29.9092 32.9224 30.0478 32.9224ZM42.0445 43H40.7092C40.5958 43 40.5328 42.937 40.5076 42.8236L40.1549 40.9845H37.9126L37.5725 42.8236C37.5473 42.937 37.4843 43 37.371 43H36.0231C35.8845 43 35.8215 42.9244 35.8593 42.7859L37.9504 33.0988C37.9756 32.9728 38.0512 32.9224 38.1646 32.9224H39.9156C40.0289 32.9224 40.1045 32.9728 40.1297 33.0988L42.2208 42.7859C42.246 42.9244 42.1956 43 42.0445 43ZM39.84 39.5232L39.0338 35.1269L38.2276 39.5232H39.84ZM46.7356 32.9224H47.8946C48.0331 32.9224 48.1465 33.0358 48.1465 33.1744V41.186C48.1465 42.3702 47.5167 43 46.3325 43H44.9217C43.7376 43 43.1077 42.3702 43.1077 41.186V33.1744C43.1077 33.0358 43.2211 32.9224 43.3597 32.9224H44.569C44.7075 32.9224 44.8209 33.0358 44.8209 33.1744V40.8333C44.8209 41.1734 44.9973 41.3372 45.3248 41.3372H45.9798C46.3073 41.3372 46.4837 41.1734 46.4837 40.8333V33.1744C46.4837 33.0358 46.5971 32.9224 46.7356 32.9224ZM49.3558 32.9224H53.9915C54.1301 32.9224 54.193 32.998 54.193 33.124V34.3837C54.193 34.5096 54.1301 34.5852 53.9915 34.5852H52.5302V42.7984C52.5302 42.937 52.4673 43 52.3287 43H51.0186C50.8926 43 50.8171 42.937 50.8171 42.7984V34.5852H49.3558C49.2298 34.5852 49.1543 34.5096 49.1543 34.3837V33.124C49.1543 32.998 49.2298 32.9224 49.3558 32.9224ZM54.9543 41.186V34.7364C54.9543 33.5523 55.5841 32.9224 56.7682 32.9224H58.1791C59.3632 32.9224 59.9931 33.5523 59.9931 34.7364V41.186C59.9931 42.3702 59.3632 43 58.1791 43H56.7682C55.5841 43 54.9543 42.3702 54.9543 41.186ZM57.1336 41.375H57.8642C58.1917 41.375 58.3681 41.2112 58.3681 40.8711V35.0513C58.3681 34.7238 58.1917 34.5474 57.8642 34.5474H57.1336C56.806 34.5474 56.6297 34.7238 56.6297 35.0513V40.8711C56.6297 41.2112 56.806 41.375 57.1336 41.375Z" fill="white"/>
<defs>
<clipPath id="clip0_744_11">
<rect width="49.3513" height="22.1443" fill="white" transform="translate(5.25195)"/>
</clipPath>
</defs>
</svg>
